<svg xmlns="http://www.w3.org/2000/svg" viewBox="0 0 200 200" width="200" height="200">
  <defs>
    <linearGradient id="g1" x1="0" y1="0" x2="0" y2="1">
      <stop offset="0" stop-color="#ffea00"/>
      <stop offset="0.5" stop-color="#ff8a00"/>
      <stop offset="1" stop-color="#ff2d55"/>
    </linearGradient>
  </defs>
  <path d="M100 20 C70 60 60 90 70 120 C50 110 50 80 65 60 C55 100 80 110 80 130 C50 130 30 100 50 70 C40 130 70 180 100 180 C150 180 170 130 140 80 C150 110 130 130 110 130 C130 110 130 80 100 60 C110 90 95 110 80 120 C100 90 110 60 100 20 Z" fill="url(#g1)" stroke="#7a1900" stroke-width="3"/>
</svg>
